<svg xmlns="http://www.w3.org/2000/svg" xmlns:xlink="http://www.w3.org/1999/xlink" viewBox="0 0 128 128"><defs><style>.cls-1{fill:none}.cls-2{fill:#10bc4c;fill-rule:evenodd}.cls-3{fill:#cef4d9}.cls-4{opacity:.32}</style><symbol id="icon-2" data-name="icon" viewBox="0 0 128 128"><g id="_4_stroke" data-name="4 stroke"><g id="Spotify"><rect width="112" height="112" x="8" y="8" class="cls-1"/><path d="M64,120A56,56,0,1,0,8,64a56.16,56.16,0,0,0,56,56" class="cls-2"/></g></g><rect width="6.5" height="6.5" x="30.5" y="60.7" class="cls-3"/><rect width="56" height="6.5" x="41.4" y="60.7" class="cls-3"/><g class="cls-4"><rect width="6.5" height="6.5" x="30.5" y="35.3" class="cls-3"/><rect width="56" height="6.5" x="41.4" y="35.3" class="cls-3"/><rect width="6.5" height="6.5" x="30.5" y="48" class="cls-3"/><rect width="56" height="6.5" x="41.4" y="48" class="cls-3"/><rect width="6.5" height="6.5" x="30.5" y="73.5" class="cls-3"/><rect width="56" height="6.5" x="41.4" y="73.5" class="cls-3"/><rect width="6.5" height="6.5" x="30.5" y="86.2" class="cls-3"/><rect width="56" height="6.5" x="41.4" y="86.2" class="cls-3"/></g><rect width="128" height="128" class="cls-1"/></symbol></defs><title>Asset 1</title><g id="Layer_2" data-name="Layer 2"><g id="icon"><use width="128" height="128" xlink:href="#icon-2"/></g></g></svg>